<svg xmlns="http://www.w3.org/2000/svg" width="2048" height="1200" viewBox="0 0 1024 600" role="img" aria-label="lang_benchmark: time to &quot;compile&quot; 31K functions">
<rect x="0" y="0" width="1024" height="600" fill="#ffffff"/>
<style>
:root{font-family:ui-sans-serif, system-ui, -apple-system, Segoe UI, Roboto, Arial;}
.t{fill:#111827;font-size:16px;font-weight:650;}
.a{fill:#6b7280;font-size:12px;}
.g{stroke:#e5e7eb;stroke-width:1;shape-rendering:crispEdges;}
.ax{stroke:#111827;stroke-width:1.2;shape-rendering:crispEdges;}
.p{fill:#111827;stroke-width:2;fill-opacity:.12;}
.l{fill:#111827;font-size:12px;}
</style>
<text class="t" x="80" y="28">lang_benchmark: time to &quot;compile&quot; 31K functions</text>
<line class="ax" x1="80" y1="544" x2="1000" y2="544"/>
<line class="ax" x1="80" y1="44" x2="80" y2="544"/>
<line class="g" x1="80" y1="544" x2="1000" y2="544"/>
<text class="a" x="70" y="548" text-anchor="end">0</text>
<line class="g" x1="80" y1="419" x2="1000" y2="419"/>
<text class="a" x="70" y="423" text-anchor="end">569</text>
<line class="g" x1="80" y1="294" x2="1000" y2="294"/>
<text class="a" x="70" y="298" text-anchor="end">1138</text>
<line class="g" x1="80" y1="169" x2="1000" y2="169"/>
<text class="a" x="70" y="173" text-anchor="end">1707</text>
<line class="g" x1="80" y1="44" x2="1000" y2="44"/>
<text class="a" x="70" y="48" text-anchor="end">2276</text>
<line class="g" x1="80" y1="44" x2="80" y2="544"/>
<text class="a" x="80" y="566" text-anchor="middle">10</text>
<line class="g" x1="109.39012584704744" y1="44" x2="109.39012584704744" y2="544"/>
<text class="a" x="109.39012584704744" y="566" text-anchor="middle">1K</text>
<line class="g" x1="139.07712165214585" y1="44" x2="139.07712165214585" y2="544"/>
<text class="a" x="139.07712165214585" y="566" text-anchor="middle">2K</text>
<line class="g" x1="168.76411745724425" y1="44" x2="168.76411745724425" y2="544"/>
<text class="a" x="168.76411745724425" y="566" text-anchor="middle">3K</text>
<line class="g" x1="198.4511132623427" y1="44" x2="198.4511132623427" y2="544"/>
<text class="a" x="198.4511132623427" y="566" text-anchor="middle">4K</text>
<line class="g" x1="228.13810906744112" y1="44" x2="228.13810906744112" y2="544"/>
<text class="a" x="228.13810906744112" y="566" text-anchor="middle">5K</text>
<line class="g" x1="257.82510487253955" y1="44" x2="257.82510487253955" y2="544"/>
<text class="a" x="257.82510487253955" y="566" text-anchor="middle">6K</text>
<line class="g" x1="287.51210067763793" y1="44" x2="287.51210067763793" y2="544"/>
<text class="a" x="287.51210067763793" y="566" text-anchor="middle">7K</text>
<line class="g" x1="317.19909648273637" y1="44" x2="317.19909648273637" y2="544"/>
<text class="a" x="317.19909648273637" y="566" text-anchor="middle">8K</text>
<line class="g" x1="346.8860922878348" y1="44" x2="346.8860922878348" y2="544"/>
<text class="a" x="346.8860922878348" y="566" text-anchor="middle">9K</text>
<line class="g" x1="376.5730880929332" y1="44" x2="376.5730880929332" y2="544"/>
<text class="a" x="376.5730880929332" y="566" text-anchor="middle">10K</text>
<line class="g" x1="406.2600838980316" y1="44" x2="406.2600838980316" y2="544"/>
<text class="a" x="406.2600838980316" y="566" text-anchor="middle">11K</text>
<line class="g" x1="435.94707970313004" y1="44" x2="435.94707970313004" y2="544"/>
<text class="a" x="435.94707970313004" y="566" text-anchor="middle">12K</text>
<line class="g" x1="465.6340755082284" y1="44" x2="465.6340755082284" y2="544"/>
<text class="a" x="465.6340755082284" y="566" text-anchor="middle">13K</text>
<line class="g" x1="495.3210713133269" y1="44" x2="495.3210713133269" y2="544"/>
<text class="a" x="495.3210713133269" y="566" text-anchor="middle">14K</text>
<line class="g" x1="525.0080671184253" y1="44" x2="525.0080671184253" y2="544"/>
<text class="a" x="525.0080671184253" y="566" text-anchor="middle">15K</text>
<line class="g" x1="554.6950629235238" y1="44" x2="554.6950629235238" y2="544"/>
<text class="a" x="554.6950629235238" y="566" text-anchor="middle">16K</text>
<line class="g" x1="584.3820587286222" y1="44" x2="584.3820587286222" y2="544"/>
<text class="a" x="584.3820587286222" y="566" text-anchor="middle">17K</text>
<line class="g" x1="614.0690545337205" y1="44" x2="614.0690545337205" y2="544"/>
<text class="a" x="614.0690545337205" y="566" text-anchor="middle">18K</text>
<line class="g" x1="643.7560503388189" y1="44" x2="643.7560503388189" y2="544"/>
<text class="a" x="643.7560503388189" y="566" text-anchor="middle">19K</text>
<line class="g" x1="673.4430461439174" y1="44" x2="673.4430461439174" y2="544"/>
<text class="a" x="673.4430461439174" y="566" text-anchor="middle">20K</text>
<line class="g" x1="703.1300419490158" y1="44" x2="703.1300419490158" y2="544"/>
<text class="a" x="703.1300419490158" y="566" text-anchor="middle">21K</text>
<line class="g" x1="732.8170377541142" y1="44" x2="732.8170377541142" y2="544"/>
<text class="a" x="732.8170377541142" y="566" text-anchor="middle">22K</text>
<line class="g" x1="762.5040335592126" y1="44" x2="762.5040335592126" y2="544"/>
<text class="a" x="762.5040335592126" y="566" text-anchor="middle">23K</text>
<line class="g" x1="792.191029364311" y1="44" x2="792.191029364311" y2="544"/>
<text class="a" x="792.191029364311" y="566" text-anchor="middle">24K</text>
<line class="g" x1="821.8780251694095" y1="44" x2="821.8780251694095" y2="544"/>
<text class="a" x="821.8780251694095" y="566" text-anchor="middle">25K</text>
<line class="g" x1="851.565020974508" y1="44" x2="851.565020974508" y2="544"/>
<text class="a" x="851.565020974508" y="566" text-anchor="middle">26K</text>
<line class="g" x1="881.2520167796064" y1="44" x2="881.2520167796064" y2="544"/>
<text class="a" x="881.2520167796064" y="566" text-anchor="middle">27K</text>
<line class="g" x1="910.9390125847048" y1="44" x2="910.9390125847048" y2="544"/>
<text class="a" x="910.9390125847048" y="566" text-anchor="middle">28K</text>
<line class="g" x1="940.6260083898031" y1="44" x2="940.6260083898031" y2="544"/>
<text class="a" x="940.6260083898031" y="566" text-anchor="middle">29K</text>
<line class="g" x1="970.3130041949016" y1="44" x2="970.3130041949016" y2="544"/>
<text class="a" x="970.3130041949016" y="566" text-anchor="middle">30K</text>
<line class="g" x1="1000" y1="44" x2="1000" y2="544"/>
<text class="a" x="1000" y="566" text-anchor="middle">31K</text>
<path d="M80.00,501.81 L109.39,500.26 L139.08,496.60 L168.76,492.74 L198.45,487.62 L228.14,483.71 L257.83,479.53 L287.51,476.45 L317.20,470.35 L346.89,465.25 L376.57,462.96 L406.26,457.02 L435.95,451.40 L465.63,447.38 L495.32,439.36 L525.01,435.19 L554.70,431.93 L584.38,425.18 L614.07,418.04 L643.76,414.46 L673.44,407.83 L703.13,403.20 L732.82,357.67 L762.50,339.70 L792.19,339.54 L821.88,341.83 L851.57,325.46 L881.25,344.58 L910.94,337.57 L940.63,334.27 L970.31,346.25 L1000.00,330.45 " fill="none" stroke="#d5a021" stroke-width="2.4" stroke-linecap="round" stroke-linejoin="round"/>
<circle cx="80.00" cy="501.81" r="3.4" fill="#d5a021" />
<circle cx="109.39" cy="500.26" r="3.4" fill="#d5a021" />
<circle cx="139.08" cy="496.60" r="3.4" fill="#d5a021" />
<circle cx="168.76" cy="492.74" r="3.4" fill="#d5a021" />
<circle cx="198.45" cy="487.62" r="3.4" fill="#d5a021" />
<circle cx="228.14" cy="483.71" r="3.4" fill="#d5a021" />
<circle cx="257.83" cy="479.53" r="3.4" fill="#d5a021" />
<circle cx="287.51" cy="476.45" r="3.4" fill="#d5a021" />
<circle cx="317.20" cy="470.35" r="3.4" fill="#d5a021" />
<circle cx="346.89" cy="465.25" r="3.4" fill="#d5a021" />
<circle cx="376.57" cy="462.96" r="3.4" fill="#d5a021" />
<circle cx="406.26" cy="457.02" r="3.4" fill="#d5a021" />
<circle cx="435.95" cy="451.40" r="3.4" fill="#d5a021" />
<circle cx="465.63" cy="447.38" r="3.4" fill="#d5a021" />
<circle cx="495.32" cy="439.36" r="3.4" fill="#d5a021" />
<circle cx="525.01" cy="435.19" r="3.4" fill="#d5a021" />
<circle cx="554.70" cy="431.93" r="3.4" fill="#d5a021" />
<circle cx="584.38" cy="425.18" r="3.4" fill="#d5a021" />
<circle cx="614.07" cy="418.04" r="3.4" fill="#d5a021" />
<circle cx="643.76" cy="414.46" r="3.4" fill="#d5a021" />
<circle cx="673.44" cy="407.83" r="3.4" fill="#d5a021" />
<circle cx="703.13" cy="403.20" r="3.4" fill="#d5a021" />
<circle cx="732.82" cy="357.67" r="3.4" fill="#d5a021" />
<circle cx="762.50" cy="339.70" r="3.4" fill="#d5a021" />
<circle cx="792.19" cy="339.54" r="3.4" fill="#d5a021" />
<circle cx="821.88" cy="341.83" r="3.4" fill="#d5a021" />
<circle cx="851.57" cy="325.46" r="3.4" fill="#d5a021" />
<circle cx="881.25" cy="344.58" r="3.4" fill="#d5a021" />
<circle cx="910.94" cy="337.57" r="3.4" fill="#d5a021" />
<circle cx="940.63" cy="334.27" r="3.4" fill="#d5a021" />
<circle cx="970.31" cy="346.25" r="3.4" fill="#d5a021" />
<circle cx="1000.00" cy="330.45" r="3.4" fill="#d5a021" />
<path d="M80.00,526.26 L109.39,523.25 L139.08,517.68 L168.76,511.01 L198.45,503.02 L228.14,495.84 L257.83,487.04 L287.51,477.07 L317.20,467.49 L346.89,455.36 L376.57,444.48 L406.26,433.35 L435.95,419.37 L465.63,404.29 L495.32,390.17 L525.01,376.21 L554.70,356.46 L584.38,345.13 L614.07,323.67 L643.76,307.43 L673.44,286.33 L703.13,268.11 L732.82,163.48 L762.50,130.81 L792.19,113.41 L821.88,100.97 L851.57,92.77 L881.25,89.28 L910.94,72.63 L940.63,44.00 L970.31,62.91 L1000.00,47.06 " fill="none" stroke="#f34b7d" stroke-width="2.4" stroke-linecap="round" stroke-linejoin="round"/>
<circle cx="80.00" cy="526.26" r="3.4" fill="#f34b7d" />
<circle cx="109.39" cy="523.25" r="3.4" fill="#f34b7d" />
<circle cx="139.08" cy="517.68" r="3.4" fill="#f34b7d" />
<circle cx="168.76" cy="511.01" r="3.4" fill="#f34b7d" />
<circle cx="198.45" cy="503.02" r="3.4" fill="#f34b7d" />
<circle cx="228.14" cy="495.84" r="3.4" fill="#f34b7d" />
<circle cx="257.83" cy="487.04" r="3.4" fill="#f34b7d" />
<circle cx="287.51" cy="477.07" r="3.4" fill="#f34b7d" />
<circle cx="317.20" cy="467.49" r="3.4" fill="#f34b7d" />
<circle cx="346.89" cy="455.36" r="3.4" fill="#f34b7d" />
<circle cx="376.57" cy="444.48" r="3.4" fill="#f34b7d" />
<circle cx="406.26" cy="433.35" r="3.4" fill="#f34b7d" />
<circle cx="435.95" cy="419.37" r="3.4" fill="#f34b7d" />
<circle cx="465.63" cy="404.29" r="3.4" fill="#f34b7d" />
<circle cx="495.32" cy="390.17" r="3.4" fill="#f34b7d" />
<circle cx="525.01" cy="376.21" r="3.4" fill="#f34b7d" />
<circle cx="554.70" cy="356.46" r="3.4" fill="#f34b7d" />
<circle cx="584.38" cy="345.13" r="3.4" fill="#f34b7d" />
<circle cx="614.07" cy="323.67" r="3.4" fill="#f34b7d" />
<circle cx="643.76" cy="307.43" r="3.4" fill="#f34b7d" />
<circle cx="673.44" cy="286.33" r="3.4" fill="#f34b7d" />
<circle cx="703.13" cy="268.11" r="3.4" fill="#f34b7d" />
<circle cx="732.82" cy="163.48" r="3.4" fill="#f34b7d" />
<circle cx="762.50" cy="130.81" r="3.4" fill="#f34b7d" />
<circle cx="792.19" cy="113.41" r="3.4" fill="#f34b7d" />
<circle cx="821.88" cy="100.97" r="3.4" fill="#f34b7d" />
<circle cx="851.57" cy="92.77" r="3.4" fill="#f34b7d" />
<circle cx="881.25" cy="89.28" r="3.4" fill="#f34b7d" />
<circle cx="910.94" cy="72.63" r="3.4" fill="#f34b7d" />
<circle cx="940.63" cy="44.00" r="3.4" fill="#f34b7d" />
<circle cx="970.31" cy="62.91" r="3.4" fill="#f34b7d" />
<circle cx="1000.00" cy="47.06" r="3.4" fill="#f34b7d" />
<path d="M80.00,514.55 L109.39,510.56 L139.08,504.79 L168.76,499.14 L198.45,492.05 L228.14,487.82 L257.83,481.65 L287.51,476.85 L317.20,470.67 L346.89,464.03 L376.57,458.28 L406.26,453.16 L435.95,446.70 L465.63,440.27 L495.32,435.85 L525.01,430.42 L554.70,423.20 L584.38,417.43 L614.07,410.14 L643.76,406.17 L673.44,398.07 L703.13,392.50 L732.82,317.71 L762.50,316.64 L792.19,342.18 L821.88,341.44 L851.57,328.42 L881.25,339.19 L910.94,334.47 L940.63,343.23 L970.31,338.23 L1000.00,331.85 " fill="none" stroke="#178600" stroke-width="2.4" stroke-linecap="round" stroke-linejoin="round"/>
<circle cx="80.00" cy="514.55" r="3.4" fill="#178600" />
<circle cx="109.39" cy="510.56" r="3.4" fill="#178600" />
<circle cx="139.08" cy="504.79" r="3.4" fill="#178600" />
<circle cx="168.76" cy="499.14" r="3.4" fill="#178600" />
<circle cx="198.45" cy="492.05" r="3.4" fill="#178600" />
<circle cx="228.14" cy="487.82" r="3.4" fill="#178600" />
<circle cx="257.83" cy="481.65" r="3.4" fill="#178600" />
<circle cx="287.51" cy="476.85" r="3.4" fill="#178600" />
<circle cx="317.20" cy="470.67" r="3.4" fill="#178600" />
<circle cx="346.89" cy="464.03" r="3.4" fill="#178600" />
<circle cx="376.57" cy="458.28" r="3.4" fill="#178600" />
<circle cx="406.26" cy="453.16" r="3.4" fill="#178600" />
<circle cx="435.95" cy="446.70" r="3.4" fill="#178600" />
<circle cx="465.63" cy="440.27" r="3.4" fill="#178600" />
<circle cx="495.32" cy="435.85" r="3.4" fill="#178600" />
<circle cx="525.01" cy="430.42" r="3.4" fill="#178600" />
<circle cx="554.70" cy="423.20" r="3.4" fill="#178600" />
<circle cx="584.38" cy="417.43" r="3.4" fill="#178600" />
<circle cx="614.07" cy="410.14" r="3.4" fill="#178600" />
<circle cx="643.76" cy="406.17" r="3.4" fill="#178600" />
<circle cx="673.44" cy="398.07" r="3.4" fill="#178600" />
<circle cx="703.13" cy="392.50" r="3.4" fill="#178600" />
<circle cx="732.82" cy="317.71" r="3.4" fill="#178600" />
<circle cx="762.50" cy="316.64" r="3.4" fill="#178600" />
<circle cx="792.19" cy="342.18" r="3.4" fill="#178600" />
<circle cx="821.88" cy="341.44" r="3.4" fill="#178600" />
<circle cx="851.57" cy="328.42" r="3.4" fill="#178600" />
<circle cx="881.25" cy="339.19" r="3.4" fill="#178600" />
<circle cx="910.94" cy="334.47" r="3.4" fill="#178600" />
<circle cx="940.63" cy="343.23" r="3.4" fill="#178600" />
<circle cx="970.31" cy="338.23" r="3.4" fill="#178600" />
<circle cx="1000.00" cy="331.85" r="3.4" fill="#178600" />
<path d="M80.00,541.58 L109.39,541.55 L139.08,541.25 L168.76,541.22 L198.45,541.12 L228.14,540.66 L257.83,540.53 L287.51,540.56 L317.20,540.41 L346.89,540.06 L376.57,539.65 L406.26,539.53 L435.95,539.63 L465.63,539.41 L495.32,539.15 L525.01,539.09 L554.70,539.00 L584.38,538.46 L614.07,538.21 L643.76,538.33 L673.44,538.18 L703.13,538.11 L732.82,534.73 L762.50,534.96 L792.19,536.00 L821.88,535.91 L851.57,535.80 L881.25,536.04 L910.94,536.03 L940.63,536.31 L970.31,536.70 L1000.00,536.30 " fill="none" stroke="#000080" stroke-width="2.4" stroke-linecap="round" stroke-linejoin="round"/>
<circle cx="80.00" cy="541.58" r="3.4" fill="#000080" />
<circle cx="109.39" cy="541.55" r="3.4" fill="#000080" />
<circle cx="139.08" cy="541.25" r="3.4" fill="#000080" />
<circle cx="168.76" cy="541.22" r="3.4" fill="#000080" />
<circle cx="198.45" cy="541.12" r="3.4" fill="#000080" />
<circle cx="228.14" cy="540.66" r="3.4" fill="#000080" />
<circle cx="257.83" cy="540.53" r="3.4" fill="#000080" />
<circle cx="287.51" cy="540.56" r="3.4" fill="#000080" />
<circle cx="317.20" cy="540.41" r="3.4" fill="#000080" />
<circle cx="346.89" cy="540.06" r="3.4" fill="#000080" />
<circle cx="376.57" cy="539.65" r="3.4" fill="#000080" />
<circle cx="406.26" cy="539.53" r="3.4" fill="#000080" />
<circle cx="435.95" cy="539.63" r="3.4" fill="#000080" />
<circle cx="465.63" cy="539.41" r="3.4" fill="#000080" />
<circle cx="495.32" cy="539.15" r="3.4" fill="#000080" />
<circle cx="525.01" cy="539.09" r="3.4" fill="#000080" />
<circle cx="554.70" cy="539.00" r="3.4" fill="#000080" />
<circle cx="584.38" cy="538.46" r="3.4" fill="#000080" />
<circle cx="614.07" cy="538.21" r="3.4" fill="#000080" />
<circle cx="643.76" cy="538.33" r="3.4" fill="#000080" />
<circle cx="673.44" cy="538.18" r="3.4" fill="#000080" />
<circle cx="703.13" cy="538.11" r="3.4" fill="#000080" />
<circle cx="732.82" cy="534.73" r="3.4" fill="#000080" />
<circle cx="762.50" cy="534.96" r="3.4" fill="#000080" />
<circle cx="792.19" cy="536.00" r="3.4" fill="#000080" />
<circle cx="821.88" cy="535.91" r="3.4" fill="#000080" />
<circle cx="851.57" cy="535.80" r="3.4" fill="#000080" />
<circle cx="881.25" cy="536.04" r="3.4" fill="#000080" />
<circle cx="910.94" cy="536.03" r="3.4" fill="#000080" />
<circle cx="940.63" cy="536.31" r="3.4" fill="#000080" />
<circle cx="970.31" cy="536.70" r="3.4" fill="#000080" />
<circle cx="1000.00" cy="536.30" r="3.4" fill="#000080" />
<path d="M80.00,531.17 L109.39,530.90 L139.08,529.85 L168.76,528.96 L198.45,528.30 L228.14,527.46 L257.83,526.85 L287.51,526.02 L317.20,524.77 L346.89,524.32 L376.57,523.05 L406.26,522.22 L435.95,521.99 L465.63,520.61 L495.32,519.94 L525.01,518.67 L554.70,517.90 L584.38,517.86 L614.07,516.86 L643.76,515.35 L673.44,515.60 L703.13,514.42 L732.82,503.34 L762.50,503.75 L792.19,505.84 L821.88,500.86 L851.57,503.22 L881.25,506.27 L910.94,504.36 L940.63,507.25 L970.31,506.88 L1000.00,505.82 " fill="none" stroke="#f1e05a" stroke-width="2.4" stroke-linecap="round" stroke-linejoin="round"/>
<circle cx="80.00" cy="531.17" r="3.4" fill="#f1e05a" />
<circle cx="109.39" cy="530.90" r="3.4" fill="#f1e05a" />
<circle cx="139.08" cy="529.85" r="3.4" fill="#f1e05a" />
<circle cx="168.76" cy="528.96" r="3.4" fill="#f1e05a" />
<circle cx="198.45" cy="528.30" r="3.4" fill="#f1e05a" />
<circle cx="228.14" cy="527.46" r="3.4" fill="#f1e05a" />
<circle cx="257.83" cy="526.85" r="3.4" fill="#f1e05a" />
<circle cx="287.51" cy="526.02" r="3.4" fill="#f1e05a" />
<circle cx="317.20" cy="524.77" r="3.4" fill="#f1e05a" />
<circle cx="346.89" cy="524.32" r="3.4" fill="#f1e05a" />
<circle cx="376.57" cy="523.05" r="3.4" fill="#f1e05a" />
<circle cx="406.26" cy="522.22" r="3.4" fill="#f1e05a" />
<circle cx="435.95" cy="521.99" r="3.4" fill="#f1e05a" />
<circle cx="465.63" cy="520.61" r="3.4" fill="#f1e05a" />
<circle cx="495.32" cy="519.94" r="3.4" fill="#f1e05a" />
<circle cx="525.01" cy="518.67" r="3.4" fill="#f1e05a" />
<circle cx="554.70" cy="517.90" r="3.4" fill="#f1e05a" />
<circle cx="584.38" cy="517.86" r="3.4" fill="#f1e05a" />
<circle cx="614.07" cy="516.86" r="3.4" fill="#f1e05a" />
<circle cx="643.76" cy="515.35" r="3.4" fill="#f1e05a" />
<circle cx="673.44" cy="515.60" r="3.4" fill="#f1e05a" />
<circle cx="703.13" cy="514.42" r="3.4" fill="#f1e05a" />
<circle cx="732.82" cy="503.34" r="3.4" fill="#f1e05a" />
<circle cx="762.50" cy="503.75" r="3.4" fill="#f1e05a" />
<circle cx="792.19" cy="505.84" r="3.4" fill="#f1e05a" />
<circle cx="821.88" cy="500.86" r="3.4" fill="#f1e05a" />
<circle cx="851.57" cy="503.22" r="3.4" fill="#f1e05a" />
<circle cx="881.25" cy="506.27" r="3.4" fill="#f1e05a" />
<circle cx="910.94" cy="504.36" r="3.4" fill="#f1e05a" />
<circle cx="940.63" cy="507.25" r="3.4" fill="#f1e05a" />
<circle cx="970.31" cy="506.88" r="3.4" fill="#f1e05a" />
<circle cx="1000.00" cy="505.82" r="3.4" fill="#f1e05a" />
<path d="M80.00,531.59 L109.39,531.61 L139.08,531.60 L168.76,531.58 L198.45,531.67 L228.14,531.63 L257.83,531.48 L287.51,531.48 L317.20,531.34 L346.89,531.53 L376.57,531.66 L406.26,531.55 L435.95,522.58 L465.63,522.56 L495.32,522.41 L525.01,522.50 L554.70,522.47 L584.38,522.50 L614.07,522.21 L643.76,522.35 L673.44,522.35 L703.13,522.33 L732.82,512.12 L762.50,512.83 L792.19,513.12 L821.88,512.85 L851.57,512.81 L881.25,512.55 L910.94,512.74 L940.63,513.04 L970.31,513.20 L1000.00,513.01 " fill="none" stroke="#0298c3" stroke-width="2.4" stroke-linecap="round" stroke-linejoin="round"/>
<circle cx="80.00" cy="531.59" r="3.4" fill="#0298c3" />
<circle cx="109.39" cy="531.61" r="3.4" fill="#0298c3" />
<circle cx="139.08" cy="531.60" r="3.4" fill="#0298c3" />
<circle cx="168.76" cy="531.58" r="3.4" fill="#0298c3" />
<circle cx="198.45" cy="531.67" r="3.4" fill="#0298c3" />
<circle cx="228.14" cy="531.63" r="3.4" fill="#0298c3" />
<circle cx="257.83" cy="531.48" r="3.4" fill="#0298c3" />
<circle cx="287.51" cy="531.48" r="3.4" fill="#0298c3" />
<circle cx="317.20" cy="531.34" r="3.4" fill="#0298c3" />
<circle cx="346.89" cy="531.53" r="3.4" fill="#0298c3" />
<circle cx="376.57" cy="531.66" r="3.4" fill="#0298c3" />
<circle cx="406.26" cy="531.55" r="3.4" fill="#0298c3" />
<circle cx="435.95" cy="522.58" r="3.4" fill="#0298c3" />
<circle cx="465.63" cy="522.56" r="3.4" fill="#0298c3" />
<circle cx="495.32" cy="522.41" r="3.4" fill="#0298c3" />
<circle cx="525.01" cy="522.50" r="3.4" fill="#0298c3" />
<circle cx="554.70" cy="522.47" r="3.4" fill="#0298c3" />
<circle cx="584.38" cy="522.50" r="3.4" fill="#0298c3" />
<circle cx="614.07" cy="522.21" r="3.4" fill="#0298c3" />
<circle cx="643.76" cy="522.35" r="3.4" fill="#0298c3" />
<circle cx="673.44" cy="522.35" r="3.4" fill="#0298c3" />
<circle cx="703.13" cy="522.33" r="3.4" fill="#0298c3" />
<circle cx="732.82" cy="512.12" r="3.4" fill="#0298c3" />
<circle cx="762.50" cy="512.83" r="3.4" fill="#0298c3" />
<circle cx="792.19" cy="513.12" r="3.4" fill="#0298c3" />
<circle cx="821.88" cy="512.85" r="3.4" fill="#0298c3" />
<circle cx="851.57" cy="512.81" r="3.4" fill="#0298c3" />
<circle cx="881.25" cy="512.55" r="3.4" fill="#0298c3" />
<circle cx="910.94" cy="512.74" r="3.4" fill="#0298c3" />
<circle cx="940.63" cy="513.04" r="3.4" fill="#0298c3" />
<circle cx="970.31" cy="513.20" r="3.4" fill="#0298c3" />
<circle cx="1000.00" cy="513.01" r="3.4" fill="#0298c3" />
<path d="M80.00,539.08 L109.39,536.82 L139.08,534.44 L168.76,532.42 L198.45,529.81 L228.14,527.44 L257.83,525.61 L287.51,523.16 L317.20,519.48 L346.89,517.50 L376.57,515.04 L406.26,511.49 L435.95,509.51 L465.63,506.57 L495.32,503.70 L525.01,501.11 L554.70,497.48 L584.38,494.12 L614.07,491.71 L643.76,488.56 L673.44,485.86 L703.13,482.66 L732.82,459.16 L762.50,461.44 L792.19,457.44 L821.88,460.86 L851.57,456.98 L881.25,459.14 L910.94,458.51 L940.63,460.83 L970.31,457.57 L1000.00,452.85 " fill="none" stroke="#3572a5" stroke-width="2.4" stroke-linecap="round" stroke-linejoin="round"/>
<circle cx="80.00" cy="539.08" r="3.4" fill="#3572a5" />
<circle cx="109.39" cy="536.82" r="3.4" fill="#3572a5" />
<circle cx="139.08" cy="534.44" r="3.4" fill="#3572a5" />
<circle cx="168.76" cy="532.42" r="3.4" fill="#3572a5" />
<circle cx="198.45" cy="529.81" r="3.4" fill="#3572a5" />
<circle cx="228.14" cy="527.44" r="3.4" fill="#3572a5" />
<circle cx="257.83" cy="525.61" r="3.4" fill="#3572a5" />
<circle cx="287.51" cy="523.16" r="3.4" fill="#3572a5" />
<circle cx="317.20" cy="519.48" r="3.4" fill="#3572a5" />
<circle cx="346.89" cy="517.50" r="3.4" fill="#3572a5" />
<circle cx="376.57" cy="515.04" r="3.4" fill="#3572a5" />
<circle cx="406.26" cy="511.49" r="3.4" fill="#3572a5" />
<circle cx="435.95" cy="509.51" r="3.4" fill="#3572a5" />
<circle cx="465.63" cy="506.57" r="3.4" fill="#3572a5" />
<circle cx="495.32" cy="503.70" r="3.4" fill="#3572a5" />
<circle cx="525.01" cy="501.11" r="3.4" fill="#3572a5" />
<circle cx="554.70" cy="497.48" r="3.4" fill="#3572a5" />
<circle cx="584.38" cy="494.12" r="3.4" fill="#3572a5" />
<circle cx="614.07" cy="491.71" r="3.4" fill="#3572a5" />
<circle cx="643.76" cy="488.56" r="3.4" fill="#3572a5" />
<circle cx="673.44" cy="485.86" r="3.4" fill="#3572a5" />
<circle cx="703.13" cy="482.66" r="3.4" fill="#3572a5" />
<circle cx="732.82" cy="459.16" r="3.4" fill="#3572a5" />
<circle cx="762.50" cy="461.44" r="3.4" fill="#3572a5" />
<circle cx="792.19" cy="457.44" r="3.4" fill="#3572a5" />
<circle cx="821.88" cy="460.86" r="3.4" fill="#3572a5" />
<circle cx="851.57" cy="456.98" r="3.4" fill="#3572a5" />
<circle cx="881.25" cy="459.14" r="3.4" fill="#3572a5" />
<circle cx="910.94" cy="458.51" r="3.4" fill="#3572a5" />
<circle cx="940.63" cy="460.83" r="3.4" fill="#3572a5" />
<circle cx="970.31" cy="457.57" r="3.4" fill="#3572a5" />
<circle cx="1000.00" cy="452.85" r="3.4" fill="#3572a5" />
<path d="M80.00,523.08 L109.39,517.97 L139.08,510.42 L168.76,504.30 L198.45,496.87 L228.14,489.49 L257.83,481.33 L287.51,470.90 L317.20,464.61 L346.89,453.23 L376.57,447.32 L406.26,437.28 L435.95,430.28 L465.63,418.09 L495.32,408.97 L525.01,399.95 L554.70,392.27 L584.38,373.63 L614.07,366.67 L643.76,355.16 L673.44,343.26 L703.13,268.04 L732.82,231.85 L762.50,239.15 L792.19,234.11 L821.88,239.09 L851.57,242.44 L881.25,225.99 L910.94,223.65 L940.63,234.97 L970.31,224.50 L1000.00,208.67 " fill="none" stroke="#60affe" stroke-width="2.4" stroke-linecap="round" stroke-linejoin="round"/>
<circle cx="80.00" cy="523.08" r="3.4" fill="#60affe" />
<circle cx="109.39" cy="517.97" r="3.4" fill="#60affe" />
<circle cx="139.08" cy="510.42" r="3.4" fill="#60affe" />
<circle cx="168.76" cy="504.30" r="3.4" fill="#60affe" />
<circle cx="198.45" cy="496.87" r="3.4" fill="#60affe" />
<circle cx="228.14" cy="489.49" r="3.4" fill="#60affe" />
<circle cx="257.83" cy="481.33" r="3.4" fill="#60affe" />
<circle cx="287.51" cy="470.90" r="3.4" fill="#60affe" />
<circle cx="317.20" cy="464.61" r="3.4" fill="#60affe" />
<circle cx="346.89" cy="453.23" r="3.4" fill="#60affe" />
<circle cx="376.57" cy="447.32" r="3.4" fill="#60affe" />
<circle cx="406.26" cy="437.28" r="3.4" fill="#60affe" />
<circle cx="435.95" cy="430.28" r="3.4" fill="#60affe" />
<circle cx="465.63" cy="418.09" r="3.4" fill="#60affe" />
<circle cx="495.32" cy="408.97" r="3.4" fill="#60affe" />
<circle cx="525.01" cy="399.95" r="3.4" fill="#60affe" />
<circle cx="554.70" cy="392.27" r="3.4" fill="#60affe" />
<circle cx="584.38" cy="373.63" r="3.4" fill="#60affe" />
<circle cx="614.07" cy="366.67" r="3.4" fill="#60affe" />
<circle cx="643.76" cy="355.16" r="3.4" fill="#60affe" />
<circle cx="673.44" cy="343.26" r="3.4" fill="#60affe" />
<circle cx="703.13" cy="268.04" r="3.4" fill="#60affe" />
<circle cx="732.82" cy="231.85" r="3.4" fill="#60affe" />
<circle cx="762.50" cy="239.15" r="3.4" fill="#60affe" />
<circle cx="792.19" cy="234.11" r="3.4" fill="#60affe" />
<circle cx="821.88" cy="239.09" r="3.4" fill="#60affe" />
<circle cx="851.57" cy="242.44" r="3.4" fill="#60affe" />
<circle cx="881.25" cy="225.99" r="3.4" fill="#60affe" />
<circle cx="910.94" cy="223.65" r="3.4" fill="#60affe" />
<circle cx="940.63" cy="234.97" r="3.4" fill="#60affe" />
<circle cx="970.31" cy="224.50" r="3.4" fill="#60affe" />
<circle cx="1000.00" cy="208.67" r="3.4" fill="#60affe" />
<path d="M80.00,541.61 L109.39,541.32 L139.08,541.14 L168.76,541.06 L198.45,540.90 L228.14,540.88 L257.83,540.60 L287.51,540.72 L317.20,540.33 L346.89,540.39 L376.57,540.27 L406.26,539.91 L435.95,539.77 L465.63,539.84 L495.32,539.66 L525.01,539.63 L554.70,539.45 L584.38,539.14 L614.07,538.89 L643.76,538.78 L673.44,538.85 L703.13,535.99 L732.82,535.95 L762.50,536.36 L792.19,536.85 L821.88,536.96 L851.57,537.60 L881.25,537.06 L910.94,536.94 L940.63,537.76 L970.31,537.58 L1000.00,537.37 " fill="none" stroke="#9ca3af" stroke-width="2.4" stroke-linecap="round" stroke-linejoin="round"/>
<circle cx="80.00" cy="541.61" r="3.4" fill="#9ca3af" />
<circle cx="109.39" cy="541.32" r="3.4" fill="#9ca3af" />
<circle cx="139.08" cy="541.14" r="3.4" fill="#9ca3af" />
<circle cx="168.76" cy="541.06" r="3.4" fill="#9ca3af" />
<circle cx="198.45" cy="540.90" r="3.4" fill="#9ca3af" />
<circle cx="228.14" cy="540.88" r="3.4" fill="#9ca3af" />
<circle cx="257.83" cy="540.60" r="3.4" fill="#9ca3af" />
<circle cx="287.51" cy="540.72" r="3.4" fill="#9ca3af" />
<circle cx="317.20" cy="540.33" r="3.4" fill="#9ca3af" />
<circle cx="346.89" cy="540.39" r="3.4" fill="#9ca3af" />
<circle cx="376.57" cy="540.27" r="3.4" fill="#9ca3af" />
<circle cx="406.26" cy="539.91" r="3.4" fill="#9ca3af" />
<circle cx="435.95" cy="539.77" r="3.4" fill="#9ca3af" />
<circle cx="465.63" cy="539.84" r="3.4" fill="#9ca3af" />
<circle cx="495.32" cy="539.66" r="3.4" fill="#9ca3af" />
<circle cx="525.01" cy="539.63" r="3.4" fill="#9ca3af" />
<circle cx="554.70" cy="539.45" r="3.4" fill="#9ca3af" />
<circle cx="584.38" cy="539.14" r="3.4" fill="#9ca3af" />
<circle cx="614.07" cy="538.89" r="3.4" fill="#9ca3af" />
<circle cx="643.76" cy="538.78" r="3.4" fill="#9ca3af" />
<circle cx="673.44" cy="538.85" r="3.4" fill="#9ca3af" />
<circle cx="703.13" cy="535.99" r="3.4" fill="#9ca3af" />
<circle cx="732.82" cy="535.95" r="3.4" fill="#9ca3af" />
<circle cx="762.50" cy="536.36" r="3.4" fill="#9ca3af" />
<circle cx="792.19" cy="536.85" r="3.4" fill="#9ca3af" />
<circle cx="821.88" cy="536.96" r="3.4" fill="#9ca3af" />
<circle cx="851.57" cy="537.60" r="3.4" fill="#9ca3af" />
<circle cx="881.25" cy="537.06" r="3.4" fill="#9ca3af" />
<circle cx="910.94" cy="536.94" r="3.4" fill="#9ca3af" />
<circle cx="940.63" cy="537.76" r="3.4" fill="#9ca3af" />
<circle cx="970.31" cy="537.58" r="3.4" fill="#9ca3af" />
<circle cx="1000.00" cy="537.37" r="3.4" fill="#9ca3af" />
<rect x="82" y="40" width="240" height="154" rx="6" fill="none" stroke="#e5e7eb"/>
<rect x="92" y="54" width="10" height="10" rx="2" fill="#d5a021"/>
<text class="l" x="108" y="64">Jai</text>
<rect x="92" y="70" width="10" height="10" rx="2" fill="#f34b7d"/>
<text class="l" x="108" y="80">Cpp</text>
<rect x="92" y="86" width="10" height="10" rx="2" fill="#178600"/>
<text class="l" x="108" y="96">CSharp</text>
<rect x="92" y="102" width="10" height="10" rx="2" fill="#000080"/>
<text class="l" x="108" y="112">Lua</text>
<rect x="92" y="118" width="10" height="10" rx="2" fill="#f1e05a"/>
<text class="l" x="108" y="128">JavaScript</text>
<rect x="92" y="134" width="10" height="10" rx="2" fill="#0298c3"/>
<text class="l" x="108" y="144">Perl</text>
<rect x="92" y="150" width="10" height="10" rx="2" fill="#3572a5"/>
<text class="l" x="108" y="160">Python</text>
<rect x="92" y="166" width="10" height="10" rx="2" fill="#60affe"/>
<text class="l" x="108" y="176">Odin</text>
<rect x="92" y="182" width="10" height="10" rx="2" fill="#9ca3af"/>
<text class="l" x="108" y="192">Tcc</text>
<text class="a" x="100" y="34" text-anchor="end">ms</text>
<text class="a" x="1000" y="588" text-anchor="end">functions</text>
</svg>
