<svg xmlns="http://www.w3.org/2000/svg" width="1024" height="600" viewBox="0 0 1024 600" role="img" aria-label="compiler_benchmark — compile time vs functions">
<rect x="0" y="0" width="1024" height="600" fill="#ffffff"/>
<style>
:root{font-family:ui-sans-serif, system-ui, -apple-system, Segoe UI, Roboto, Arial;}
.t{fill:#111827;font-size:16px;font-weight:650;}
.a{fill:#6b7280;font-size:12px;}
.g{stroke:#e5e7eb;stroke-width:1;shape-rendering:crispEdges;}
.ax{stroke:#111827;stroke-width:1.2;shape-rendering:crispEdges;}
.p{fill:#111827;stroke-width:2;fill-opacity:.12;}
.l{fill:#111827;font-size:12px;}
</style>
<text class="t" x="80" y="28">compiler_benchmark — compile time vs functions</text>
<line class="ax" x1="80" y1="544" x2="1000" y2="544"/>
<line class="ax" x1="80" y1="44" x2="80" y2="544"/>
<line class="g" x1="80" y1="544" x2="1000" y2="544"/>
<text class="a" x="70" y="548" text-anchor="end">0</text>
<line class="g" x1="80" y1="419" x2="1000" y2="419"/>
<text class="a" x="70" y="423" text-anchor="end">1100</text>
<line class="g" x1="80" y1="294" x2="1000" y2="294"/>
<text class="a" x="70" y="298" text-anchor="end">2200</text>
<line class="g" x1="80" y1="169" x2="1000" y2="169"/>
<text class="a" x="70" y="173" text-anchor="end">3299</text>
<line class="g" x1="80" y1="44" x2="1000" y2="44"/>
<text class="a" x="70" y="48" text-anchor="end">4399</text>
<line class="g" x1="80" y1="44" x2="80" y2="544"/>
<text class="a" x="80" y="566" text-anchor="middle">10</text>
<line class="g" x1="109.39012584704744" y1="44" x2="109.39012584704744" y2="544"/>
<text class="a" x="109.39012584704744" y="566" text-anchor="middle">1000</text>
<line class="g" x1="139.07712165214585" y1="44" x2="139.07712165214585" y2="544"/>
<text class="a" x="139.07712165214585" y="566" text-anchor="middle">2000</text>
<line class="g" x1="168.76411745724425" y1="44" x2="168.76411745724425" y2="544"/>
<text class="a" x="168.76411745724425" y="566" text-anchor="middle">3000</text>
<line class="g" x1="198.4511132623427" y1="44" x2="198.4511132623427" y2="544"/>
<text class="a" x="198.4511132623427" y="566" text-anchor="middle">4000</text>
<line class="g" x1="228.13810906744112" y1="44" x2="228.13810906744112" y2="544"/>
<text class="a" x="228.13810906744112" y="566" text-anchor="middle">5000</text>
<line class="g" x1="257.82510487253955" y1="44" x2="257.82510487253955" y2="544"/>
<text class="a" x="257.82510487253955" y="566" text-anchor="middle">6000</text>
<line class="g" x1="287.51210067763793" y1="44" x2="287.51210067763793" y2="544"/>
<text class="a" x="287.51210067763793" y="566" text-anchor="middle">7000</text>
<line class="g" x1="317.19909648273637" y1="44" x2="317.19909648273637" y2="544"/>
<text class="a" x="317.19909648273637" y="566" text-anchor="middle">8000</text>
<line class="g" x1="346.8860922878348" y1="44" x2="346.8860922878348" y2="544"/>
<text class="a" x="346.8860922878348" y="566" text-anchor="middle">9000</text>
<line class="g" x1="376.5730880929332" y1="44" x2="376.5730880929332" y2="544"/>
<text class="a" x="376.5730880929332" y="566" text-anchor="middle">10000</text>
<line class="g" x1="406.2600838980316" y1="44" x2="406.2600838980316" y2="544"/>
<text class="a" x="406.2600838980316" y="566" text-anchor="middle">11000</text>
<line class="g" x1="435.94707970313004" y1="44" x2="435.94707970313004" y2="544"/>
<text class="a" x="435.94707970313004" y="566" text-anchor="middle">12000</text>
<line class="g" x1="465.6340755082284" y1="44" x2="465.6340755082284" y2="544"/>
<text class="a" x="465.6340755082284" y="566" text-anchor="middle">13000</text>
<line class="g" x1="495.3210713133269" y1="44" x2="495.3210713133269" y2="544"/>
<text class="a" x="495.3210713133269" y="566" text-anchor="middle">14000</text>
<line class="g" x1="525.0080671184253" y1="44" x2="525.0080671184253" y2="544"/>
<text class="a" x="525.0080671184253" y="566" text-anchor="middle">15000</text>
<line class="g" x1="554.6950629235238" y1="44" x2="554.6950629235238" y2="544"/>
<text class="a" x="554.6950629235238" y="566" text-anchor="middle">16000</text>
<line class="g" x1="584.3820587286222" y1="44" x2="584.3820587286222" y2="544"/>
<text class="a" x="584.3820587286222" y="566" text-anchor="middle">17000</text>
<line class="g" x1="614.0690545337205" y1="44" x2="614.0690545337205" y2="544"/>
<text class="a" x="614.0690545337205" y="566" text-anchor="middle">18000</text>
<line class="g" x1="643.7560503388189" y1="44" x2="643.7560503388189" y2="544"/>
<text class="a" x="643.7560503388189" y="566" text-anchor="middle">19000</text>
<line class="g" x1="673.4430461439174" y1="44" x2="673.4430461439174" y2="544"/>
<text class="a" x="673.4430461439174" y="566" text-anchor="middle">20000</text>
<line class="g" x1="703.1300419490158" y1="44" x2="703.1300419490158" y2="544"/>
<text class="a" x="703.1300419490158" y="566" text-anchor="middle">21000</text>
<line class="g" x1="732.8170377541142" y1="44" x2="732.8170377541142" y2="544"/>
<text class="a" x="732.8170377541142" y="566" text-anchor="middle">22000</text>
<line class="g" x1="762.5040335592126" y1="44" x2="762.5040335592126" y2="544"/>
<text class="a" x="762.5040335592126" y="566" text-anchor="middle">23000</text>
<line class="g" x1="792.191029364311" y1="44" x2="792.191029364311" y2="544"/>
<text class="a" x="792.191029364311" y="566" text-anchor="middle">24000</text>
<line class="g" x1="821.8780251694095" y1="44" x2="821.8780251694095" y2="544"/>
<text class="a" x="821.8780251694095" y="566" text-anchor="middle">25000</text>
<line class="g" x1="851.565020974508" y1="44" x2="851.565020974508" y2="544"/>
<text class="a" x="851.565020974508" y="566" text-anchor="middle">26000</text>
<line class="g" x1="881.2520167796064" y1="44" x2="881.2520167796064" y2="544"/>
<text class="a" x="881.2520167796064" y="566" text-anchor="middle">27000</text>
<line class="g" x1="910.9390125847048" y1="44" x2="910.9390125847048" y2="544"/>
<text class="a" x="910.9390125847048" y="566" text-anchor="middle">28000</text>
<line class="g" x1="940.6260083898031" y1="44" x2="940.6260083898031" y2="544"/>
<text class="a" x="940.6260083898031" y="566" text-anchor="middle">29000</text>
<line class="g" x1="970.3130041949016" y1="44" x2="970.3130041949016" y2="544"/>
<text class="a" x="970.3130041949016" y="566" text-anchor="middle">30000</text>
<line class="g" x1="1000" y1="44" x2="1000" y2="544"/>
<text class="a" x="1000" y="566" text-anchor="middle">31000</text>
<path d="M80.00,534.10 L109.39,531.88 L139.08,529.05 L168.76,525.43 L198.45,521.73 L228.14,517.47 L257.83,512.76 L287.51,508.20 L317.20,503.39 L346.89,497.52 L376.57,492.34 L406.26,485.69 L435.95,474.76 L465.63,468.88 L495.32,456.47 L525.01,449.02 L554.70,447.90 L584.38,439.62 L614.07,430.87 L643.76,418.30 L673.44,414.32 L703.13,403.36 L732.82,384.77 L762.50,382.48 L792.19,374.80 L821.88,365.12 L851.57,336.84 L881.25,337.14 L910.94,323.58 L940.63,315.16 L970.31,304.34 L1000.00,290.32 " fill="none" stroke="#f34b7d" stroke-width="2.4" stroke-linecap="round" stroke-linejoin="round"/>
<circle cx="80.00" cy="534.10" r="3.4" fill="#f34b7d" />
<circle cx="109.39" cy="531.88" r="3.4" fill="#f34b7d" />
<circle cx="139.08" cy="529.05" r="3.4" fill="#f34b7d" />
<circle cx="168.76" cy="525.43" r="3.4" fill="#f34b7d" />
<circle cx="198.45" cy="521.73" r="3.4" fill="#f34b7d" />
<circle cx="228.14" cy="517.47" r="3.4" fill="#f34b7d" />
<circle cx="257.83" cy="512.76" r="3.4" fill="#f34b7d" />
<circle cx="287.51" cy="508.20" r="3.4" fill="#f34b7d" />
<circle cx="317.20" cy="503.39" r="3.4" fill="#f34b7d" />
<circle cx="346.89" cy="497.52" r="3.4" fill="#f34b7d" />
<circle cx="376.57" cy="492.34" r="3.4" fill="#f34b7d" />
<circle cx="406.26" cy="485.69" r="3.4" fill="#f34b7d" />
<circle cx="435.95" cy="474.76" r="3.4" fill="#f34b7d" />
<circle cx="465.63" cy="468.88" r="3.4" fill="#f34b7d" />
<circle cx="495.32" cy="456.47" r="3.4" fill="#f34b7d" />
<circle cx="525.01" cy="449.02" r="3.4" fill="#f34b7d" />
<circle cx="554.70" cy="447.90" r="3.4" fill="#f34b7d" />
<circle cx="584.38" cy="439.62" r="3.4" fill="#f34b7d" />
<circle cx="614.07" cy="430.87" r="3.4" fill="#f34b7d" />
<circle cx="643.76" cy="418.30" r="3.4" fill="#f34b7d" />
<circle cx="673.44" cy="414.32" r="3.4" fill="#f34b7d" />
<circle cx="703.13" cy="403.36" r="3.4" fill="#f34b7d" />
<circle cx="732.82" cy="384.77" r="3.4" fill="#f34b7d" />
<circle cx="762.50" cy="382.48" r="3.4" fill="#f34b7d" />
<circle cx="792.19" cy="374.80" r="3.4" fill="#f34b7d" />
<circle cx="821.88" cy="365.12" r="3.4" fill="#f34b7d" />
<circle cx="851.57" cy="336.84" r="3.4" fill="#f34b7d" />
<circle cx="881.25" cy="337.14" r="3.4" fill="#f34b7d" />
<circle cx="910.94" cy="323.58" r="3.4" fill="#f34b7d" />
<circle cx="940.63" cy="315.16" r="3.4" fill="#f34b7d" />
<circle cx="970.31" cy="304.34" r="3.4" fill="#f34b7d" />
<circle cx="1000.00" cy="290.32" r="3.4" fill="#f34b7d" />
<path d="M80.00,453.25 L109.39,441.68 L139.08,431.58 L168.76,420.98 L198.45,407.73 L228.14,395.13 L257.83,382.07 L287.51,369.15 L317.20,355.39 L346.89,340.64 L376.57,326.67 L406.26,314.23 L435.95,301.80 L465.63,289.49 L495.32,270.46 L525.01,256.53 L554.70,246.00 L584.38,229.97 L614.07,217.99 L643.76,199.09 L673.44,187.49 L703.13,170.63 L732.82,160.04 L762.50,151.39 L792.19,139.02 L821.88,117.26 L851.57,93.82 L881.25,87.40 L910.94,74.07 L940.63,63.49 L970.31,49.08 L1000.00,44.00 " fill="none" stroke="#ec915c" stroke-width="2.4" stroke-linecap="round" stroke-linejoin="round"/>
<circle cx="80.00" cy="453.25" r="3.4" fill="#ec915c" />
<circle cx="109.39" cy="441.68" r="3.4" fill="#ec915c" />
<circle cx="139.08" cy="431.58" r="3.4" fill="#ec915c" />
<circle cx="168.76" cy="420.98" r="3.4" fill="#ec915c" />
<circle cx="198.45" cy="407.73" r="3.4" fill="#ec915c" />
<circle cx="228.14" cy="395.13" r="3.4" fill="#ec915c" />
<circle cx="257.83" cy="382.07" r="3.4" fill="#ec915c" />
<circle cx="287.51" cy="369.15" r="3.4" fill="#ec915c" />
<circle cx="317.20" cy="355.39" r="3.4" fill="#ec915c" />
<circle cx="346.89" cy="340.64" r="3.4" fill="#ec915c" />
<circle cx="376.57" cy="326.67" r="3.4" fill="#ec915c" />
<circle cx="406.26" cy="314.23" r="3.4" fill="#ec915c" />
<circle cx="435.95" cy="301.80" r="3.4" fill="#ec915c" />
<circle cx="465.63" cy="289.49" r="3.4" fill="#ec915c" />
<circle cx="495.32" cy="270.46" r="3.4" fill="#ec915c" />
<circle cx="525.01" cy="256.53" r="3.4" fill="#ec915c" />
<circle cx="554.70" cy="246.00" r="3.4" fill="#ec915c" />
<circle cx="584.38" cy="229.97" r="3.4" fill="#ec915c" />
<circle cx="614.07" cy="217.99" r="3.4" fill="#ec915c" />
<circle cx="643.76" cy="199.09" r="3.4" fill="#ec915c" />
<circle cx="673.44" cy="187.49" r="3.4" fill="#ec915c" />
<circle cx="703.13" cy="170.63" r="3.4" fill="#ec915c" />
<circle cx="732.82" cy="160.04" r="3.4" fill="#ec915c" />
<circle cx="762.50" cy="151.39" r="3.4" fill="#ec915c" />
<circle cx="792.19" cy="139.02" r="3.4" fill="#ec915c" />
<circle cx="821.88" cy="117.26" r="3.4" fill="#ec915c" />
<circle cx="851.57" cy="93.82" r="3.4" fill="#ec915c" />
<circle cx="881.25" cy="87.40" r="3.4" fill="#ec915c" />
<circle cx="910.94" cy="74.07" r="3.4" fill="#ec915c" />
<circle cx="940.63" cy="63.49" r="3.4" fill="#ec915c" />
<circle cx="970.31" cy="49.08" r="3.4" fill="#ec915c" />
<circle cx="1000.00" cy="44.00" r="3.4" fill="#ec915c" />
<path d="M80.00,528.27 L109.39,526.54 L139.08,523.47 L168.76,520.21 L198.45,517.75 L228.14,514.70 L257.83,511.67 L287.51,508.67 L317.20,505.27 L346.89,502.44 L376.57,499.66 L406.26,496.26 L435.95,493.15 L465.63,490.03 L495.32,485.32 L525.01,484.29 L554.70,480.25 L584.38,477.69 L614.07,475.02 L643.76,470.89 L673.44,468.82 L703.13,464.07 L732.82,461.03 L762.50,459.91 L792.19,451.75 L821.88,453.15 L851.57,446.46 L881.25,447.58 L910.94,443.00 L940.63,441.04 L970.31,438.15 L1000.00,436.09 " fill="none" stroke="#178600" stroke-width="2.4" stroke-linecap="round" stroke-linejoin="round"/>
<circle cx="80.00" cy="528.27" r="3.4" fill="#178600" />
<circle cx="109.39" cy="526.54" r="3.4" fill="#178600" />
<circle cx="139.08" cy="523.47" r="3.4" fill="#178600" />
<circle cx="168.76" cy="520.21" r="3.4" fill="#178600" />
<circle cx="198.45" cy="517.75" r="3.4" fill="#178600" />
<circle cx="228.14" cy="514.70" r="3.4" fill="#178600" />
<circle cx="257.83" cy="511.67" r="3.4" fill="#178600" />
<circle cx="287.51" cy="508.67" r="3.4" fill="#178600" />
<circle cx="317.20" cy="505.27" r="3.4" fill="#178600" />
<circle cx="346.89" cy="502.44" r="3.4" fill="#178600" />
<circle cx="376.57" cy="499.66" r="3.4" fill="#178600" />
<circle cx="406.26" cy="496.26" r="3.4" fill="#178600" />
<circle cx="435.95" cy="493.15" r="3.4" fill="#178600" />
<circle cx="465.63" cy="490.03" r="3.4" fill="#178600" />
<circle cx="495.32" cy="485.32" r="3.4" fill="#178600" />
<circle cx="525.01" cy="484.29" r="3.4" fill="#178600" />
<circle cx="554.70" cy="480.25" r="3.4" fill="#178600" />
<circle cx="584.38" cy="477.69" r="3.4" fill="#178600" />
<circle cx="614.07" cy="475.02" r="3.4" fill="#178600" />
<circle cx="643.76" cy="470.89" r="3.4" fill="#178600" />
<circle cx="673.44" cy="468.82" r="3.4" fill="#178600" />
<circle cx="703.13" cy="464.07" r="3.4" fill="#178600" />
<circle cx="732.82" cy="461.03" r="3.4" fill="#178600" />
<circle cx="762.50" cy="459.91" r="3.4" fill="#178600" />
<circle cx="792.19" cy="451.75" r="3.4" fill="#178600" />
<circle cx="821.88" cy="453.15" r="3.4" fill="#178600" />
<circle cx="851.57" cy="446.46" r="3.4" fill="#178600" />
<circle cx="881.25" cy="447.58" r="3.4" fill="#178600" />
<circle cx="910.94" cy="443.00" r="3.4" fill="#178600" />
<circle cx="940.63" cy="441.04" r="3.4" fill="#178600" />
<circle cx="970.31" cy="438.15" r="3.4" fill="#178600" />
<circle cx="1000.00" cy="436.09" r="3.4" fill="#178600" />
<path d="M80.00,542.69 L109.39,542.62 L139.08,542.67 L168.76,542.66 L198.45,542.58 L228.14,542.20 L257.83,542.18 L287.51,542.24 L317.20,542.12 L346.89,542.07 L376.57,541.77 L406.26,541.68 L435.95,541.17 L465.63,541.11 L495.32,540.98 L525.01,541.35 L554.70,540.64 L584.38,540.38 L614.07,540.32 L643.76,540.99 L673.44,540.13 L703.13,540.20 L732.82,540.63 L762.50,540.75 L792.19,539.38 L821.88,539.65 L851.57,540.04 L881.25,540.32 L910.94,539.33 L940.63,540.08 L970.31,540.13 L1000.00,540.06 " fill="none" stroke="#000080" stroke-width="2.4" stroke-linecap="round" stroke-linejoin="round"/>
<circle cx="80.00" cy="542.69" r="3.4" fill="#000080" />
<circle cx="109.39" cy="542.62" r="3.4" fill="#000080" />
<circle cx="139.08" cy="542.67" r="3.4" fill="#000080" />
<circle cx="168.76" cy="542.66" r="3.4" fill="#000080" />
<circle cx="198.45" cy="542.58" r="3.4" fill="#000080" />
<circle cx="228.14" cy="542.20" r="3.4" fill="#000080" />
<circle cx="257.83" cy="542.18" r="3.4" fill="#000080" />
<circle cx="287.51" cy="542.24" r="3.4" fill="#000080" />
<circle cx="317.20" cy="542.12" r="3.4" fill="#000080" />
<circle cx="346.89" cy="542.07" r="3.4" fill="#000080" />
<circle cx="376.57" cy="541.77" r="3.4" fill="#000080" />
<circle cx="406.26" cy="541.68" r="3.4" fill="#000080" />
<circle cx="435.95" cy="541.17" r="3.4" fill="#000080" />
<circle cx="465.63" cy="541.11" r="3.4" fill="#000080" />
<circle cx="495.32" cy="540.98" r="3.4" fill="#000080" />
<circle cx="525.01" cy="541.35" r="3.4" fill="#000080" />
<circle cx="554.70" cy="540.64" r="3.4" fill="#000080" />
<circle cx="584.38" cy="540.38" r="3.4" fill="#000080" />
<circle cx="614.07" cy="540.32" r="3.4" fill="#000080" />
<circle cx="643.76" cy="540.99" r="3.4" fill="#000080" />
<circle cx="673.44" cy="540.13" r="3.4" fill="#000080" />
<circle cx="703.13" cy="540.20" r="3.4" fill="#000080" />
<circle cx="732.82" cy="540.63" r="3.4" fill="#000080" />
<circle cx="762.50" cy="540.75" r="3.4" fill="#000080" />
<circle cx="792.19" cy="539.38" r="3.4" fill="#000080" />
<circle cx="821.88" cy="539.65" r="3.4" fill="#000080" />
<circle cx="851.57" cy="540.04" r="3.4" fill="#000080" />
<circle cx="881.25" cy="540.32" r="3.4" fill="#000080" />
<circle cx="910.94" cy="539.33" r="3.4" fill="#000080" />
<circle cx="940.63" cy="540.08" r="3.4" fill="#000080" />
<circle cx="970.31" cy="540.13" r="3.4" fill="#000080" />
<circle cx="1000.00" cy="540.06" r="3.4" fill="#000080" />
<path d="M80.00,528.76 L109.39,519.30 L139.08,508.57 L168.76,496.83 L198.45,486.17 L228.14,475.59 L257.83,461.70 L287.51,447.59 L317.20,436.86 L346.89,418.65 L376.57,409.31 L406.26,395.41 L435.95,381.07 L465.63,368.75 L495.32,351.59 L525.01,328.61 L554.70,322.49 L584.38,306.96 L614.07,288.94 L643.76,277.70 L673.44,260.84 L703.13,241.60 L732.82,226.09 L762.50,216.30 L792.19,195.97 L821.88,181.78 L851.57,140.73 L881.25,150.78 L910.94,134.24 L940.63,114.05 L970.31,101.08 L1000.00,82.99 " fill="none" stroke="#dea584" stroke-width="2.4" stroke-linecap="round" stroke-linejoin="round"/>
<circle cx="80.00" cy="528.76" r="3.4" fill="#dea584" />
<circle cx="109.39" cy="519.30" r="3.4" fill="#dea584" />
<circle cx="139.08" cy="508.57" r="3.4" fill="#dea584" />
<circle cx="168.76" cy="496.83" r="3.4" fill="#dea584" />
<circle cx="198.45" cy="486.17" r="3.4" fill="#dea584" />
<circle cx="228.14" cy="475.59" r="3.4" fill="#dea584" />
<circle cx="257.83" cy="461.70" r="3.4" fill="#dea584" />
<circle cx="287.51" cy="447.59" r="3.4" fill="#dea584" />
<circle cx="317.20" cy="436.86" r="3.4" fill="#dea584" />
<circle cx="346.89" cy="418.65" r="3.4" fill="#dea584" />
<circle cx="376.57" cy="409.31" r="3.4" fill="#dea584" />
<circle cx="406.26" cy="395.41" r="3.4" fill="#dea584" />
<circle cx="435.95" cy="381.07" r="3.4" fill="#dea584" />
<circle cx="465.63" cy="368.75" r="3.4" fill="#dea584" />
<circle cx="495.32" cy="351.59" r="3.4" fill="#dea584" />
<circle cx="525.01" cy="328.61" r="3.4" fill="#dea584" />
<circle cx="554.70" cy="322.49" r="3.4" fill="#dea584" />
<circle cx="584.38" cy="306.96" r="3.4" fill="#dea584" />
<circle cx="614.07" cy="288.94" r="3.4" fill="#dea584" />
<circle cx="643.76" cy="277.70" r="3.4" fill="#dea584" />
<circle cx="673.44" cy="260.84" r="3.4" fill="#dea584" />
<circle cx="703.13" cy="241.60" r="3.4" fill="#dea584" />
<circle cx="732.82" cy="226.09" r="3.4" fill="#dea584" />
<circle cx="762.50" cy="216.30" r="3.4" fill="#dea584" />
<circle cx="792.19" cy="195.97" r="3.4" fill="#dea584" />
<circle cx="821.88" cy="181.78" r="3.4" fill="#dea584" />
<circle cx="851.57" cy="140.73" r="3.4" fill="#dea584" />
<circle cx="881.25" cy="150.78" r="3.4" fill="#dea584" />
<circle cx="910.94" cy="134.24" r="3.4" fill="#dea584" />
<circle cx="940.63" cy="114.05" r="3.4" fill="#dea584" />
<circle cx="970.31" cy="101.08" r="3.4" fill="#dea584" />
<circle cx="1000.00" cy="82.99" r="3.4" fill="#dea584" />
<path d="M80.00,538.35 L109.39,538.06 L139.08,537.91 L168.76,537.52 L198.45,537.55 L228.14,537.12 L257.83,536.86 L287.51,536.56 L317.20,536.30 L346.89,535.87 L376.57,535.63 L406.26,534.38 L435.95,534.53 L465.63,533.97 L495.32,534.09 L525.01,533.09 L554.70,533.19 L584.38,532.90 L614.07,532.55 L643.76,533.54 L673.44,532.05 L703.13,531.81 L732.82,532.66 L762.50,532.33 L792.19,531.07 L821.88,530.04 L851.57,531.21 L881.25,531.28 L910.94,530.70 L940.63,530.37 L970.31,529.94 L1000.00,529.55 " fill="none" stroke="#f1e05a" stroke-width="2.4" stroke-linecap="round" stroke-linejoin="round"/>
<circle cx="80.00" cy="538.35" r="3.4" fill="#f1e05a" />
<circle cx="109.39" cy="538.06" r="3.4" fill="#f1e05a" />
<circle cx="139.08" cy="537.91" r="3.4" fill="#f1e05a" />
<circle cx="168.76" cy="537.52" r="3.4" fill="#f1e05a" />
<circle cx="198.45" cy="537.55" r="3.4" fill="#f1e05a" />
<circle cx="228.14" cy="537.12" r="3.4" fill="#f1e05a" />
<circle cx="257.83" cy="536.86" r="3.4" fill="#f1e05a" />
<circle cx="287.51" cy="536.56" r="3.4" fill="#f1e05a" />
<circle cx="317.20" cy="536.30" r="3.4" fill="#f1e05a" />
<circle cx="346.89" cy="535.87" r="3.4" fill="#f1e05a" />
<circle cx="376.57" cy="535.63" r="3.4" fill="#f1e05a" />
<circle cx="406.26" cy="534.38" r="3.4" fill="#f1e05a" />
<circle cx="435.95" cy="534.53" r="3.4" fill="#f1e05a" />
<circle cx="465.63" cy="533.97" r="3.4" fill="#f1e05a" />
<circle cx="495.32" cy="534.09" r="3.4" fill="#f1e05a" />
<circle cx="525.01" cy="533.09" r="3.4" fill="#f1e05a" />
<circle cx="554.70" cy="533.19" r="3.4" fill="#f1e05a" />
<circle cx="584.38" cy="532.90" r="3.4" fill="#f1e05a" />
<circle cx="614.07" cy="532.55" r="3.4" fill="#f1e05a" />
<circle cx="643.76" cy="533.54" r="3.4" fill="#f1e05a" />
<circle cx="673.44" cy="532.05" r="3.4" fill="#f1e05a" />
<circle cx="703.13" cy="531.81" r="3.4" fill="#f1e05a" />
<circle cx="732.82" cy="532.66" r="3.4" fill="#f1e05a" />
<circle cx="762.50" cy="532.33" r="3.4" fill="#f1e05a" />
<circle cx="792.19" cy="531.07" r="3.4" fill="#f1e05a" />
<circle cx="821.88" cy="530.04" r="3.4" fill="#f1e05a" />
<circle cx="851.57" cy="531.21" r="3.4" fill="#f1e05a" />
<circle cx="881.25" cy="531.28" r="3.4" fill="#f1e05a" />
<circle cx="910.94" cy="530.70" r="3.4" fill="#f1e05a" />
<circle cx="940.63" cy="530.37" r="3.4" fill="#f1e05a" />
<circle cx="970.31" cy="529.94" r="3.4" fill="#f1e05a" />
<circle cx="1000.00" cy="529.55" r="3.4" fill="#f1e05a" />
<path d="M80.00,537.59 L109.39,537.65 L139.08,537.61 L168.76,537.63 L198.45,537.67 L228.14,537.58 L257.83,537.57 L287.51,537.58 L317.20,537.45 L346.89,537.43 L376.57,537.46 L406.26,532.75 L435.95,532.80 L465.63,532.76 L495.32,532.77 L525.01,532.66 L554.70,532.71 L584.38,532.73 L614.07,532.69 L643.76,532.79 L673.44,532.75 L703.13,532.60 L732.82,532.75 L762.50,532.78 L792.19,527.99 L821.88,527.89 L851.57,528.08 L881.25,528.12 L910.94,528.06 L940.63,528.12 L970.31,528.23 L1000.00,528.04 " fill="none" stroke="#0298c3" stroke-width="2.4" stroke-linecap="round" stroke-linejoin="round"/>
<circle cx="80.00" cy="537.59" r="3.4" fill="#0298c3" />
<circle cx="109.39" cy="537.65" r="3.4" fill="#0298c3" />
<circle cx="139.08" cy="537.61" r="3.4" fill="#0298c3" />
<circle cx="168.76" cy="537.63" r="3.4" fill="#0298c3" />
<circle cx="198.45" cy="537.67" r="3.4" fill="#0298c3" />
<circle cx="228.14" cy="537.58" r="3.4" fill="#0298c3" />
<circle cx="257.83" cy="537.57" r="3.4" fill="#0298c3" />
<circle cx="287.51" cy="537.58" r="3.4" fill="#0298c3" />
<circle cx="317.20" cy="537.45" r="3.4" fill="#0298c3" />
<circle cx="346.89" cy="537.43" r="3.4" fill="#0298c3" />
<circle cx="376.57" cy="537.46" r="3.4" fill="#0298c3" />
<circle cx="406.26" cy="532.75" r="3.4" fill="#0298c3" />
<circle cx="435.95" cy="532.80" r="3.4" fill="#0298c3" />
<circle cx="465.63" cy="532.76" r="3.4" fill="#0298c3" />
<circle cx="495.32" cy="532.77" r="3.4" fill="#0298c3" />
<circle cx="525.01" cy="532.66" r="3.4" fill="#0298c3" />
<circle cx="554.70" cy="532.71" r="3.4" fill="#0298c3" />
<circle cx="584.38" cy="532.73" r="3.4" fill="#0298c3" />
<circle cx="614.07" cy="532.69" r="3.4" fill="#0298c3" />
<circle cx="643.76" cy="532.79" r="3.4" fill="#0298c3" />
<circle cx="673.44" cy="532.75" r="3.4" fill="#0298c3" />
<circle cx="703.13" cy="532.60" r="3.4" fill="#0298c3" />
<circle cx="732.82" cy="532.75" r="3.4" fill="#0298c3" />
<circle cx="762.50" cy="532.78" r="3.4" fill="#0298c3" />
<circle cx="792.19" cy="527.99" r="3.4" fill="#0298c3" />
<circle cx="821.88" cy="527.89" r="3.4" fill="#0298c3" />
<circle cx="851.57" cy="528.08" r="3.4" fill="#0298c3" />
<circle cx="881.25" cy="528.12" r="3.4" fill="#0298c3" />
<circle cx="910.94" cy="528.06" r="3.4" fill="#0298c3" />
<circle cx="940.63" cy="528.12" r="3.4" fill="#0298c3" />
<circle cx="970.31" cy="528.23" r="3.4" fill="#0298c3" />
<circle cx="1000.00" cy="528.04" r="3.4" fill="#0298c3" />
<path d="M80.00,541.56 L109.39,540.27 L139.08,538.93 L168.76,538.18 L198.45,536.93 L228.14,535.78 L257.83,534.52 L287.51,533.20 L317.20,531.64 L346.89,528.76 L376.57,529.13 L406.26,526.86 L435.95,525.41 L465.63,524.17 L495.32,522.66 L525.01,521.10 L554.70,519.22 L584.38,517.83 L614.07,516.49 L643.76,515.86 L673.44,513.78 L703.13,511.78 L732.82,510.43 L762.50,510.21 L792.19,508.11 L821.88,497.09 L851.57,506.10 L881.25,504.61 L910.94,503.41 L940.63,501.83 L970.31,500.72 L1000.00,497.40 " fill="none" stroke="#3572a5" stroke-width="2.4" stroke-linecap="round" stroke-linejoin="round"/>
<circle cx="80.00" cy="541.56" r="3.4" fill="#3572a5" />
<circle cx="109.39" cy="540.27" r="3.4" fill="#3572a5" />
<circle cx="139.08" cy="538.93" r="3.4" fill="#3572a5" />
<circle cx="168.76" cy="538.18" r="3.4" fill="#3572a5" />
<circle cx="198.45" cy="536.93" r="3.4" fill="#3572a5" />
<circle cx="228.14" cy="535.78" r="3.4" fill="#3572a5" />
<circle cx="257.83" cy="534.52" r="3.4" fill="#3572a5" />
<circle cx="287.51" cy="533.20" r="3.4" fill="#3572a5" />
<circle cx="317.20" cy="531.64" r="3.4" fill="#3572a5" />
<circle cx="346.89" cy="528.76" r="3.4" fill="#3572a5" />
<circle cx="376.57" cy="529.13" r="3.4" fill="#3572a5" />
<circle cx="406.26" cy="526.86" r="3.4" fill="#3572a5" />
<circle cx="435.95" cy="525.41" r="3.4" fill="#3572a5" />
<circle cx="465.63" cy="524.17" r="3.4" fill="#3572a5" />
<circle cx="495.32" cy="522.66" r="3.4" fill="#3572a5" />
<circle cx="525.01" cy="521.10" r="3.4" fill="#3572a5" />
<circle cx="554.70" cy="519.22" r="3.4" fill="#3572a5" />
<circle cx="584.38" cy="517.83" r="3.4" fill="#3572a5" />
<circle cx="614.07" cy="516.49" r="3.4" fill="#3572a5" />
<circle cx="643.76" cy="515.86" r="3.4" fill="#3572a5" />
<circle cx="673.44" cy="513.78" r="3.4" fill="#3572a5" />
<circle cx="703.13" cy="511.78" r="3.4" fill="#3572a5" />
<circle cx="732.82" cy="510.43" r="3.4" fill="#3572a5" />
<circle cx="762.50" cy="510.21" r="3.4" fill="#3572a5" />
<circle cx="792.19" cy="508.11" r="3.4" fill="#3572a5" />
<circle cx="821.88" cy="497.09" r="3.4" fill="#3572a5" />
<circle cx="851.57" cy="506.10" r="3.4" fill="#3572a5" />
<circle cx="881.25" cy="504.61" r="3.4" fill="#3572a5" />
<circle cx="910.94" cy="503.41" r="3.4" fill="#3572a5" />
<circle cx="940.63" cy="501.83" r="3.4" fill="#3572a5" />
<circle cx="970.31" cy="500.72" r="3.4" fill="#3572a5" />
<circle cx="1000.00" cy="497.40" r="3.4" fill="#3572a5" />
<path d="M80.00,521.44 L109.39,519.78 L139.08,515.70 L168.76,509.36 L198.45,506.41 L228.14,499.69 L257.83,494.63 L287.51,487.32 L317.20,480.72 L346.89,472.30 L376.57,467.08 L406.26,453.74 L435.95,444.72 L465.63,440.90 L495.32,430.43 L525.01,425.55 L554.70,418.41 L584.38,410.14 L614.07,400.39 L643.76,395.88 L673.44,380.45 L703.13,376.69 L732.82,368.81 L762.50,362.70 L792.19,347.87 L821.88,252.09 L851.57,330.72 L881.25,325.17 L910.94,315.16 L940.63,306.28 L970.31,296.53 L1000.00,285.95 " fill="none" stroke="#60affe" stroke-width="2.4" stroke-linecap="round" stroke-linejoin="round"/>
<circle cx="80.00" cy="521.44" r="3.4" fill="#60affe" />
<circle cx="109.39" cy="519.78" r="3.4" fill="#60affe" />
<circle cx="139.08" cy="515.70" r="3.4" fill="#60affe" />
<circle cx="168.76" cy="509.36" r="3.4" fill="#60affe" />
<circle cx="198.45" cy="506.41" r="3.4" fill="#60affe" />
<circle cx="228.14" cy="499.69" r="3.4" fill="#60affe" />
<circle cx="257.83" cy="494.63" r="3.4" fill="#60affe" />
<circle cx="287.51" cy="487.32" r="3.4" fill="#60affe" />
<circle cx="317.20" cy="480.72" r="3.4" fill="#60affe" />
<circle cx="346.89" cy="472.30" r="3.4" fill="#60affe" />
<circle cx="376.57" cy="467.08" r="3.4" fill="#60affe" />
<circle cx="406.26" cy="453.74" r="3.4" fill="#60affe" />
<circle cx="435.95" cy="444.72" r="3.4" fill="#60affe" />
<circle cx="465.63" cy="440.90" r="3.4" fill="#60affe" />
<circle cx="495.32" cy="430.43" r="3.4" fill="#60affe" />
<circle cx="525.01" cy="425.55" r="3.4" fill="#60affe" />
<circle cx="554.70" cy="418.41" r="3.4" fill="#60affe" />
<circle cx="584.38" cy="410.14" r="3.4" fill="#60affe" />
<circle cx="614.07" cy="400.39" r="3.4" fill="#60affe" />
<circle cx="643.76" cy="395.88" r="3.4" fill="#60affe" />
<circle cx="673.44" cy="380.45" r="3.4" fill="#60affe" />
<circle cx="703.13" cy="376.69" r="3.4" fill="#60affe" />
<circle cx="732.82" cy="368.81" r="3.4" fill="#60affe" />
<circle cx="762.50" cy="362.70" r="3.4" fill="#60affe" />
<circle cx="792.19" cy="347.87" r="3.4" fill="#60affe" />
<circle cx="821.88" cy="252.09" r="3.4" fill="#60affe" />
<circle cx="851.57" cy="330.72" r="3.4" fill="#60affe" />
<circle cx="881.25" cy="325.17" r="3.4" fill="#60affe" />
<circle cx="910.94" cy="315.16" r="3.4" fill="#60affe" />
<circle cx="940.63" cy="306.28" r="3.4" fill="#60affe" />
<circle cx="970.31" cy="296.53" r="3.4" fill="#60affe" />
<circle cx="1000.00" cy="285.95" r="3.4" fill="#60affe" />
<rect x="760" y="38" width="10" height="10" rx="2" fill="#f34b7d"/>
<text class="l" x="776" y="48">Cpp</text>
<rect x="760" y="54" width="10" height="10" rx="2" fill="#ec915c"/>
<text class="l" x="776" y="64">Zig</text>
<rect x="760" y="70" width="10" height="10" rx="2" fill="#178600"/>
<text class="l" x="776" y="80">CSharp</text>
<rect x="760" y="86" width="10" height="10" rx="2" fill="#000080"/>
<text class="l" x="776" y="96">Lua</text>
<rect x="760" y="102" width="10" height="10" rx="2" fill="#dea584"/>
<text class="l" x="776" y="112">Rust</text>
<rect x="760" y="118" width="10" height="10" rx="2" fill="#f1e05a"/>
<text class="l" x="776" y="128">JavaScript</text>
<rect x="760" y="134" width="10" height="10" rx="2" fill="#0298c3"/>
<text class="l" x="776" y="144">Perl</text>
<rect x="760" y="150" width="10" height="10" rx="2" fill="#3572a5"/>
<text class="l" x="776" y="160">Python</text>
<rect x="760" y="166" width="10" height="10" rx="2" fill="#60affe"/>
<text class="l" x="776" y="176">Odin</text>
<text class="a" x="100" y="34" text-anchor="end">ms</text>
<text class="a" x="1000" y="588" text-anchor="end">functions</text>
</svg>
